<svg width="1440" height="1025" viewBox="0 0 1440 1025" fill="none" xmlns="http://www.w3.org/2000/svg">
<g clip-path="url(#clip0_88_23)">
<rect width="1440" height="1025" fill="white"/>
<g clip-path="url(#clip1_88_23)">
<mask id="mask0_88_23" style="mask-type:luminance" maskUnits="userSpaceOnUse" x="0" y="0" width="1440" height="1025">
<path d="M1440 0.576538H0V1024.58H1440V0.576538Z" fill="white"/>
</mask>
<g mask="url(#mask0_88_23)">
<path d="M1440 0.576538H0V1024.58H1440V0.576538Z" fill="white"/>
<path d="M1468.27 -42.1511H-28.2754V1067.31H1468.27V-42.1511Z" fill="url(#paint0_linear_88_23)" fill-opacity="0.5"/>
<path d="M1456.72 661.346C1447.36 627.502 1420.73 597.765 1387.57 586.258C1379.42 583.43 1370.7 581.57 1362.18 582.849C1350.56 584.592 1340.51 591.934 1332.2 600.264C1323.04 609.428 1314.92 622.795 1303.36 629.13C1301.21 630.311 1298.69 630.951 1296.31 630.428C1293.56 629.827 1291.37 627.774 1289.53 625.643C1282.37 617.351 1273.05 610.784 1262.3 608.033C1254.63 606.057 1246.21 606.425 1239.18 610.009C1233.99 612.663 1229.78 616.867 1225.77 621.09C1221.76 625.313 1217.76 629.672 1212.78 632.694C1208.27 635.445 1202.94 636.898 1197.69 635.91C1192.23 634.883 1187.37 631.784 1181.85 630.97C1178.3 630.447 1174.64 630.931 1171.23 632.036C1157.27 636.53 1145.53 650.381 1136.55 661.346H1456.72Z" fill="#CCDFFF"/>
<path d="M171.916 608.775C162.561 574.931 135.93 545.194 102.772 533.687C94.6185 530.859 85.9029 528.999 77.381 530.278C65.7602 532.021 55.7082 539.363 47.3993 547.694C38.2383 556.857 30.1231 570.224 18.5604 576.559C16.4106 577.74 13.8927 578.38 11.5105 577.857C8.76026 577.256 6.57166 575.203 4.7317 573.072C-2.43446 564.78 -11.7505 558.213 -22.4997 555.462C-30.1694 553.486 -38.5945 553.854 -45.6251 557.438C-50.8157 560.092 -55.0186 564.296 -59.0277 568.519C-63.0369 572.742 -67.0461 577.101 -72.0237 580.123C-76.5364 582.874 -81.8626 584.327 -87.1113 583.339C-92.5731 582.312 -97.4344 579.213 -102.954 578.399C-106.499 577.876 -110.159 578.36 -113.568 579.465C-127.532 583.959 -139.269 597.81 -148.256 608.775H171.916Z" fill="#CCDFFF"/>
<path d="M917.272 794.286H899.711V702.717H861.886V756.452H817.308V797.028H786.238V825.54H735.426V807.446H705.707V794.286H625.331V839.796H597.639V816.219H525.368V835.149H488.521V808.576H418.69V830.382H403.997L370.756 830.383V775.796L223.879 775.787V827.363H82.3914V785.83H-6.86554V840.221H-102.152V940.4L1550.89 936.3V803.603H1492.03V822.753H1420.6V739.22H1375.81V823.603H1355.14V792.928H1303.17V764.12H1212.38V741.928H1141.01V782.428H1108.43V789.638H1085.96V753.308H1028.32V776.707H988.873V801.337H948.221V825.968H917.272V794.286Z" fill="#CCDFFF"/>
<path d="M1440 872.282H0V1043.9H1440V872.282Z" fill="#25AD95"/>
<path d="M181.041 529.67C178.005 529.047 175.07 528.392 172.135 527.901C167.21 527.115 162.251 526.951 157.258 527.016C150.14 527.115 143.09 527.803 136.039 528.884C134.15 529.178 132.294 529.506 130.169 529.866C130.709 529.08 131.08 528.425 131.552 527.835C135.6 522.889 140.897 519.842 147.07 518.106C154.222 516.075 161.509 515.78 168.863 516.566C172.743 516.992 176.555 517.746 180.401 518.368C180.907 518.434 181.143 518.303 181.446 517.942C185.157 513.029 189.576 508.868 194.94 505.658C199.528 502.906 204.454 501.236 209.919 501.432C210.964 501.465 212.044 501.661 213.09 501.76C213.258 501.792 213.393 501.858 213.663 501.956C213.292 502.218 212.989 502.415 212.685 502.611C205.331 507.296 198.145 512.21 191.398 517.713C188.396 520.17 185.461 522.692 183.032 525.739C182.02 526.918 181.244 528.228 181.041 529.67Z" fill="white"/>
<path d="M310.962 572.477C310.428 570.296 308.827 568.821 307.258 567.345C302.72 563.08 297.548 559.552 292.342 556.089C291.475 555.512 290.607 554.934 289.739 554.357C289.739 554.261 289.773 554.165 289.773 554.068C291.241 554.068 292.743 553.908 294.211 554.036C299.65 554.614 303.788 557.468 307.492 561.124C308.56 562.182 309.527 563.305 310.462 564.491C310.862 564.972 311.196 565.068 311.797 564.94C316.235 564.01 320.706 563.433 325.278 563.593C330.15 563.786 334.788 564.78 338.959 567.345C341.095 568.628 343.398 570.905 344.165 572.541C338.626 571.483 333.12 570.809 327.547 570.681C321.908 570.52 316.368 570.809 310.962 572.477Z" fill="white"/>
<path d="M78.9606 582.271C88.7954 579.994 98.6918 581.105 109.142 582.437C108.342 581.549 107.912 580.938 107.359 580.383C103.671 577.052 99.0606 575.664 94.0202 575.053C89.4101 574.553 84.8 574.998 80.3128 575.775C79.0835 575.997 78.2844 575.775 77.4239 574.831C74.1661 571.278 70.355 568.28 65.2532 566.947C63.2862 566.447 61.3192 566.059 59.0449 566.669C66.1137 571.611 73.9202 575.331 78.9606 582.271Z" fill="white"/>
<path d="M1478.87 915.006H1029.47V828.916H1478.87V915.006Z" fill="#FFCC60"/>
<path d="M1087.89 864.791H1096.68V858.584C1096.68 855.507 1094.99 852.678 1092.29 851.219C1089.58 852.678 1087.89 855.507 1087.89 858.584V864.791Z" fill="#50250A"/>
<path d="M1098.54 864.792H1086.03V868.296H1098.54V864.792Z" fill="#9D4820"/>
<path d="M1071.95 864.791H1080.74V858.584C1080.74 855.507 1079.05 852.678 1076.34 851.219C1073.64 852.678 1071.95 855.507 1071.95 858.584V864.791Z" fill="#50250A"/>
<path d="M1082.6 864.792H1070.09V868.296H1082.6V864.792Z" fill="#9D4820"/>
<path d="M1056.01 864.791H1064.8V858.584C1064.8 855.507 1063.11 852.678 1060.4 851.219C1057.69 852.678 1056.01 855.507 1056.01 858.584V864.791Z" fill="#50250A"/>
<path d="M1066.66 864.792H1054.15V868.296H1066.66V864.792Z" fill="#9D4820"/>
<path d="M1091.38 831.517H1093.2V840.683H1091.38V831.517Z" fill="#50250A"/>
<path d="M1095.24 831.517H1097.06V840.683H1095.24V831.517Z" fill="#50250A"/>
<path d="M1087.51 831.517H1089.33V840.683H1087.51V831.517Z" fill="#50250A"/>
<path d="M1075.44 831.517H1077.25V840.683H1075.44V831.517Z" fill="#50250A"/>
<path d="M1079.3 831.517H1081.12V840.683H1079.3V831.517Z" fill="#50250A"/>
<path d="M1071.57 831.517H1073.39V840.683H1071.57V831.517Z" fill="#50250A"/>
<path d="M1059.49 831.517H1061.31V840.683H1059.49V831.517Z" fill="#50250A"/>
<path d="M1063.36 831.517H1065.18V840.683H1063.36V831.517Z" fill="#50250A"/>
<path d="M1055.63 831.517H1057.45V840.683H1055.63V831.517Z" fill="#50250A"/>
<path d="M1040.46 846.002H1473.85" stroke="#F2964B" stroke-width="2"/>
<path d="M1040.46 873.778H1473.85" stroke="#F2964B" stroke-width="2"/>
<path d="M1198.59 864.791H1207.39V858.584C1207.39 855.507 1205.7 852.678 1202.99 851.219C1200.28 852.678 1198.59 855.507 1198.59 858.584V864.791Z" fill="#50250A"/>
<path d="M1209.24 864.792H1196.73V868.296H1209.24V864.792Z" fill="#9D4820"/>
<path d="M1181.45 864.791H1190.25V858.584C1190.25 855.507 1188.56 852.678 1185.85 851.219C1183.14 852.678 1181.45 855.507 1181.45 858.584V864.791Z" fill="#50250A"/>
<path d="M1192.1 864.792H1179.59V868.296H1192.1V864.792Z" fill="#9D4820"/>
<path d="M1216.72 864.791H1225.52V858.584C1225.52 855.507 1223.83 852.678 1221.12 851.219C1218.41 852.678 1216.72 855.507 1216.72 858.584V864.791Z" fill="#50250A"/>
<path d="M1227.38 864.792H1214.87V868.296H1227.38V864.792Z" fill="#9D4820"/>
<path d="M1234.86 864.791H1243.66V858.584C1243.66 855.507 1241.97 852.678 1239.26 851.219C1236.55 852.678 1234.86 855.507 1234.86 858.584V864.791Z" fill="#50250A"/>
<path d="M1245.51 864.792H1233V868.296H1245.51V864.792Z" fill="#9D4820"/>
<path d="M1271.25 864.791H1280.04V858.584C1280.04 855.507 1278.36 852.678 1275.65 851.219C1272.94 852.678 1271.25 855.507 1271.25 858.584V864.791Z" fill="#50250A"/>
<path d="M1281.9 864.792H1269.39V868.296H1281.9V864.792Z" fill="#9D4820"/>
<path d="M1289.44 864.791H1298.24V858.584C1298.24 855.507 1296.55 852.678 1293.84 851.219C1291.13 852.678 1289.44 855.507 1289.44 858.584V864.791Z" fill="#50250A"/>
<path d="M1300.09 864.792H1287.58V868.296H1300.09V864.792Z" fill="#9D4820"/>
<path d="M1183.8 831.517H1185.61V840.683H1183.8V831.517Z" fill="#50250A"/>
<path d="M1187.66 831.517H1189.48V840.683H1187.66V831.517Z" fill="#50250A"/>
<path d="M1179.93 831.517H1181.75V840.683H1179.93V831.517Z" fill="#50250A"/>
<path d="M1202.08 831.517H1203.9V840.683H1202.08V831.517Z" fill="#50250A"/>
<path d="M1205.94 831.517H1207.76V840.683H1205.94V831.517Z" fill="#50250A"/>
<path d="M1198.21 831.517H1200.03V840.683H1198.21V831.517Z" fill="#50250A"/>
<path d="M1220.21 831.517H1222.03V840.683H1220.21V831.517Z" fill="#50250A"/>
<path d="M1224.08 831.517H1225.9V840.683H1224.08V831.517Z" fill="#50250A"/>
<path d="M1216.35 831.517H1218.17V840.683H1216.35V831.517Z" fill="#50250A"/>
<path d="M1238.35 831.517H1240.17V840.683H1238.35V831.517Z" fill="#50250A"/>
<path d="M1242.21 831.517H1244.03V840.683H1242.21V831.517Z" fill="#50250A"/>
<path d="M1234.48 831.517H1236.3V840.683H1234.48V831.517Z" fill="#50250A"/>
<path d="M1256.5 831.517H1258.32V840.683H1256.5V831.517Z" fill="#50250A"/>
<path d="M1260.37 831.517H1262.19V840.683H1260.37V831.517Z" fill="#50250A"/>
<path d="M1252.64 831.517H1254.46V840.683H1252.64V831.517Z" fill="#50250A"/>
<path d="M1274.74 831.517H1276.56V840.683H1274.74V831.517Z" fill="#50250A"/>
<path d="M1278.6 831.517H1280.42V840.683H1278.6V831.517Z" fill="#50250A"/>
<path d="M1270.87 831.517H1272.69V840.683H1270.87V831.517Z" fill="#50250A"/>
<path d="M1292.93 831.517H1294.75V840.683H1292.93V831.517Z" fill="#50250A"/>
<path d="M1296.8 831.517H1298.62V840.683H1296.8V831.517Z" fill="#50250A"/>
<path d="M1289.07 831.517H1290.89V840.683H1289.07V831.517Z" fill="#50250A"/>
<path d="M1445.47 864.791H1436.67V858.584C1436.67 855.507 1438.36 852.678 1441.07 851.219C1443.78 852.678 1445.47 855.507 1445.47 858.584V864.791Z" fill="#50250A"/>
<path d="M1434.81 864.792H1447.32V868.296H1434.81V864.792Z" fill="#9D4820"/>
<path d="M1409.08 864.791H1400.28V858.584C1400.28 855.507 1401.97 852.678 1404.68 851.219C1407.39 852.678 1409.08 855.507 1409.08 858.584V864.791Z" fill="#50250A"/>
<path d="M1398.43 864.792H1410.94V868.296H1398.43V864.792Z" fill="#9D4820"/>
<path d="M1390.88 864.791H1382.09V858.584C1382.09 855.507 1383.78 852.678 1386.48 851.219C1389.19 852.678 1390.88 855.507 1390.88 858.584V864.791Z" fill="#50250A"/>
<path d="M1380.23 864.792H1392.74V868.296H1380.23V864.792Z" fill="#9D4820"/>
<path d="M1438.11 831.517H1436.29V840.683H1438.11V831.517Z" fill="#50250A"/>
<path d="M1423.82 831.517H1422V840.683H1423.82V831.517Z" fill="#50250A"/>
<path d="M1419.96 831.517H1418.14V840.683H1419.96V831.517Z" fill="#50250A"/>
<path d="M1427.69 831.517H1425.87V840.683H1427.69V831.517Z" fill="#50250A"/>
<path d="M1405.59 831.517H1403.77V840.683H1405.59V831.517Z" fill="#50250A"/>
<path d="M1401.72 831.517H1399.9V840.683H1401.72V831.517Z" fill="#50250A"/>
<path d="M1409.45 831.517H1407.63V840.683H1409.45V831.517Z" fill="#50250A"/>
<path d="M1387.39 831.517H1385.58V840.683H1387.39V831.517Z" fill="#50250A"/>
<path d="M1383.53 831.517H1381.71V840.683H1383.53V831.517Z" fill="#50250A"/>
<path d="M1391.26 831.517H1389.44V840.683H1391.26V831.517Z" fill="#50250A"/>
<path d="M1478.87 796.644H1029.47V828.917H1478.87V796.644Z" fill="#C35F0C"/>
<path d="M1400.81 782.772V796.644" stroke="black" stroke-width="2"/>
<path d="M1114.71 791.583H1167.2V878.6H1114.71V791.583Z" fill="#FFCC60"/>
<path d="M1122.46 819.629H1159.46" stroke="#F2964B" stroke-width="3.16513"/>
<path d="M1122.45 834.791H1159.45" stroke="#F2964B" stroke-width="3.16513"/>
<path d="M1122.45 791.583H1159.45" stroke="#F2964B" stroke-width="3.16513"/>
<path d="M1159.45 791.583H1122.45L1130.45 756.784H1151.45L1159.45 791.583Z" fill="#C35F0C"/>
<path d="M1147.64 742.915V756.787" stroke="black" stroke-width="2"/>
<path d="M1135.36 742.915V756.787" stroke="black" stroke-width="2"/>
<path d="M1019.53 742.915V756.787" stroke="black" stroke-width="2"/>
<path d="M1081.48 782.772V796.644" stroke="black" stroke-width="2"/>
<path d="M1225.9 782.772V796.644" stroke="black" stroke-width="2"/>
<path d="M1281.9 782.772V796.644" stroke="black" stroke-width="2"/>
<path d="M1159.45 791.583H1167.09L1160.56 764.253L1151.45 756.784L1159.45 791.583Z" fill="#AE5002"/>
<path d="M1122.45 855.111H1159.45" stroke="#F2964B" stroke-width="3.16513"/>
<path d="M1145.69 823.558H1150.85V829.022H1145.69V823.558Z" fill="#F2964B"/>
<path d="M1131.06 823.559H1136.22V829.022H1131.06V823.559Z" fill="#F2964B"/>
<path d="M1135.36 802.206H1138.8V813.194H1135.36V802.206Z" fill="#F2964B"/>
<path d="M1149.99 802.206H1153.43V813.194H1149.99V802.206Z" fill="#F2964B"/>
<path d="M1143.11 802.206H1146.55V813.194H1143.11V802.206Z" fill="#F2964B"/>
<path d="M1128.47 802.206H1131.92V813.194H1128.47V802.206Z" fill="#F2964B"/>
<path d="M1135.36 839.705H1138.81V849.772H1135.36V839.705Z" fill="#F2964B"/>
<path d="M1150 839.705H1153.44V849.772H1150V839.705Z" fill="#F2964B"/>
<path d="M1143.11 839.705H1146.56V849.772H1143.11V839.705Z" fill="#F2964B"/>
<path d="M1128.48 839.705H1131.92V849.772H1128.48V839.705Z" fill="#F2964B"/>
<path d="M1122.45 787.71L1119.39 774.728C1119.19 773.871 1117.97 773.871 1117.77 774.728L1114.7 787.71V898.6H1122.45V787.71Z" fill="#F2964B"/>
<path d="M1167.2 787.71L1164.14 774.728C1163.93 773.871 1162.72 773.871 1162.51 774.728L1159.45 787.71V898.6H1167.2V787.71Z" fill="#F2964B"/>
<path d="M1167.2 787.71L1168.17 787.481L1168.2 787.594V787.71H1167.2ZM1162.99 774.229C1162.87 773.692 1163.2 773.153 1163.74 773.027C1164.28 772.9 1164.81 773.233 1164.94 773.771L1162.99 774.229ZM1166.23 787.94L1162.99 774.229L1164.94 773.771L1168.17 787.481L1166.23 787.94ZM1166.2 898.6V787.71H1168.2V898.6H1166.2Z" fill="#813B19"/>
<path d="M1122.46 787.71L1123.43 787.481L1123.46 787.594V787.71H1122.46ZM1118.25 774.229C1118.13 773.692 1118.46 773.153 1119 773.027C1119.53 772.9 1120.07 773.233 1120.2 773.771L1118.25 774.229ZM1121.48 787.94L1118.25 774.229L1120.2 773.771L1123.43 787.481L1121.48 787.94ZM1121.46 898.6V787.71H1123.46V898.6H1121.46Z" fill="#813B19"/>
<path d="M1129.58 877.364H1138.38V869.157C1138.38 866.08 1136.69 863.251 1133.98 861.792C1131.27 863.251 1129.58 866.08 1129.58 869.157V877.364Z" fill="#9D4820"/>
<path d="M1144.66 877.364H1153.45V869.157C1153.45 866.08 1151.76 863.251 1149.05 861.792C1146.35 863.251 1144.66 866.08 1144.66 869.157V877.364Z" fill="#9D4820"/>
<path d="M989.577 791.583H1042.07V898.6H989.577V791.583Z" fill="#FFCC60"/>
<path d="M997.329 819.629H1034.33" stroke="#F2964B" stroke-width="3.16513"/>
<path d="M997.32 834.791H1034.32" stroke="#F2964B" stroke-width="3.16513"/>
<path d="M997.322 791.583H1034.33" stroke="#F2964B" stroke-width="3.16513"/>
<path d="M1034.33 791.583H997.322L1005.32 756.784H1026.33L1034.33 791.583Z" fill="#C35F0C"/>
<path d="M1034.33 791.583H1041.96L1035.43 764.253L1026.33 756.784L1034.33 791.583Z" fill="#AE5002"/>
<path d="M997.322 855.111H1034.33" stroke="#F2964B" stroke-width="3.16513"/>
<path d="M1020.56 823.558H1025.72V829.022H1020.56V823.558Z" fill="#F2964B"/>
<path d="M1005.93 823.559H1011.09V829.022H1005.93V823.559Z" fill="#F2964B"/>
<path d="M1010.23 802.206H1013.67V813.194H1010.23V802.206Z" fill="#F2964B"/>
<path d="M1024.86 802.206H1028.3V813.194H1024.86V802.206Z" fill="#F2964B"/>
<path d="M1017.98 802.206H1021.42V813.194H1017.98V802.206Z" fill="#F2964B"/>
<path d="M1003.35 802.206H1006.79V813.194H1003.35V802.206Z" fill="#F2964B"/>
<path d="M1010.24 839.705H1013.68V849.772H1010.24V839.705Z" fill="#F2964B"/>
<path d="M1024.87 839.705H1028.31V849.772H1024.87V839.705Z" fill="#F2964B"/>
<path d="M1017.99 839.705H1021.43V849.772H1017.99V839.705Z" fill="#F2964B"/>
<path d="M1003.35 839.705H1006.79V849.772H1003.35V839.705Z" fill="#F2964B"/>
<path d="M997.322 787.71L994.261 774.728C994.059 773.871 992.839 773.871 992.637 774.728L989.577 787.71V898.6H997.322V787.71Z" fill="#F2964B"/>
<path d="M1042.07 787.71L1039.01 774.728C1038.81 773.871 1037.59 773.871 1037.38 774.728L1034.32 787.71V888.6H1042.07V787.71Z" fill="#F2964B"/>
<path d="M1042.07 787.71L1043.05 787.481L1043.07 787.594V787.71H1042.07ZM1037.87 774.229C1037.74 773.692 1038.07 773.153 1038.61 773.027C1039.15 772.9 1039.69 773.233 1039.81 773.771L1037.87 774.229ZM1041.1 787.94L1037.87 774.229L1039.81 773.771L1043.05 787.481L1041.1 787.94ZM1041.07 878.6V787.71H1043.07V878.6H1041.07Z" fill="#813B19"/>
<path d="M997.33 787.71L998.304 787.481L998.33 787.594V787.71H997.33ZM993.125 774.229C992.998 773.692 993.331 773.153 993.868 773.027C994.406 772.9 994.944 773.233 995.071 773.771L993.125 774.229ZM996.357 787.94L993.125 774.229L995.071 773.771L998.304 787.481L996.357 787.94ZM996.33 898.6V787.71H998.33V898.6H996.33Z" fill="#813B19"/>
<path d="M1004.46 877.364H1013.25V869.157C1013.25 866.08 1011.56 863.251 1008.85 861.792C1006.15 863.251 1004.46 866.08 1004.46 869.157V877.364Z" fill="#9D4820"/>
<path d="M1019.53 877.364H1028.32V869.157C1028.32 866.08 1026.64 863.251 1023.93 861.792C1021.22 863.251 1019.53 866.08 1019.53 869.157V877.364Z" fill="#9D4820"/>
<path d="M1478.87 828.917V825.606H1168.19V828.917H1478.87Z" fill="#131620"/>
<path d="M1043.07 825.606V828.917H1114.69V825.606H1043.07Z" fill="#131620"/>
<path d="M1258.05 915.006L626.057 1052.77H1490.42V930.01L1421.59 915.006H1258.05Z" fill="#FFF5DF"/>
<path d="M1317.13 626.621H1362.5V561.209L1360.68 552.468C1360.5 551.582 1359.23 551.582 1359.05 552.468L1357.23 561.209H1322.94L1320.85 552.096C1320.65 551.232 1319.42 551.232 1319.22 552.096L1317.13 561.209V626.621Z" fill="#FFCC60"/>
<path d="M1343.51 477.86L1359.34 579.145H1320.3L1336.13 477.86H1343.51Z" fill="#25AD95"/>
<path d="M1343.59 477.86L1359.33 579.145H1347.73L1341.4 477.86H1343.59Z" fill="#09856F"/>
<path d="M1307.64 626.447H1372V890.001H1307.64V626.447Z" fill="#FFCC60"/>
<path d="M1317.13 682.538H1362.5" stroke="#F2964B" stroke-width="3.16513"/>
<path d="M1317.13 626.621H1362.5" stroke="#F2964B" stroke-width="3.16513"/>
<path d="M1317.13 723.693H1362.5" stroke="#F2964B" stroke-width="3.16513"/>
<path d="M1345.62 697.315H1351.95V713.141H1345.62V697.315Z" fill="#F2964B"/>
<path d="M1327.68 697.316H1334.01V713.142H1327.68V697.316Z" fill="#F2964B"/>
<path d="M1345.62 736.357H1351.95V752.182H1345.62V736.357Z" fill="#F2964B"/>
<path d="M1327.68 736.357H1334.01V752.183H1327.68V736.357Z" fill="#F2964B"/>
<path d="M1332.96 644.561H1337.18V670.937H1332.96V644.561Z" fill="#F2964B"/>
<path d="M1350.9 644.561H1355.12V670.937H1350.9V644.561Z" fill="#F2964B"/>
<path d="M1342.46 644.561H1346.68V670.937H1342.46V644.561Z" fill="#F2964B"/>
<path d="M1324.52 644.562H1328.74V670.938H1324.52V644.562Z" fill="#F2964B"/>
<path d="M1332.96 804.938H1337.18V831.314H1332.96V804.938Z" fill="#F2964B"/>
<path d="M1350.9 804.938H1355.12V831.314H1350.9V804.938Z" fill="#F2964B"/>
<path d="M1342.46 804.938H1346.68V831.314H1342.46V804.938Z" fill="#F2964B"/>
<path d="M1324.52 804.938H1328.74V831.314H1324.52V804.938Z" fill="#F2964B"/>
<path d="M1317.13 626.722L1313.22 587.46C1313.12 586.458 1311.66 586.458 1311.56 587.46L1307.64 626.722V890.001H1317.13V626.722Z" fill="#F2964B"/>
<path d="M1371.99 626.722L1368.08 587.46C1367.98 586.458 1366.52 586.458 1366.42 587.46L1362.5 626.722V890.001H1371.99V626.722Z" fill="#F2964B"/>
<path d="M1372 626.722L1372.99 626.623L1373 626.672V626.722H1372ZM1367.04 587.106C1366.98 586.557 1367.38 586.067 1367.93 586.012C1368.48 585.957 1368.97 586.358 1369.03 586.908L1367.04 587.106ZM1367.26 858.043L1366.47 857.429L1367.26 856.415L1368.05 857.429L1367.26 858.043ZM1371 626.821L1367.04 587.106L1369.03 586.908L1372.99 626.623L1371 626.821ZM1371 890.001V864.13H1373V890.001H1371ZM1371 864.13V626.722H1373V864.13H1371ZM1371.21 864.745L1366.47 858.657L1368.05 857.429L1372.79 863.516L1371.21 864.745ZM1368.05 858.657L1363.32 864.745L1361.74 863.516L1366.47 857.429L1368.05 858.657Z" fill="#813B19"/>
<path d="M1339.82 616.288C1347.11 616.288 1353.01 610.328 1353.01 602.995C1353.01 595.662 1347.11 589.702 1339.82 589.702C1332.53 589.702 1326.63 595.662 1326.63 602.995C1326.63 610.328 1332.53 616.288 1339.82 616.288Z" fill="white" stroke="#F2964B" stroke-width="2.11009"/>
<path d="M1343.49 597.008L1338.24 600.041L1340.75 604.388" stroke="#468CFB" stroke-width="1.69006" stroke-linecap="round" stroke-linejoin="round"/>
<path d="M1334.9 429.332H1312.14V445.042H1334.9V429.332Z" fill="white"/>
<path d="M1315.85 429.332H1307.87V445.043H1315.85V429.332Z" fill="#03A400"/>
<path d="M1339.29 429.332H1331.31V445.043H1339.29V429.332Z" fill="#0065E0"/>
<path d="M1359.33 579.148L1343.51 477.864H1339.82V429.332" stroke="#043129" stroke-width="2" stroke-linecap="round"/>
<path d="M1317.13 580.206H1362.5" stroke="#F2964B" stroke-width="3.16513"/>
<path d="M1317.14 626.722L1318.14 626.623V626.672V626.722H1317.14ZM1312.18 587.106C1312.13 586.557 1312.53 586.067 1313.08 586.012C1313.63 585.957 1314.12 586.358 1314.17 586.908L1312.18 587.106ZM1312.41 858.043L1311.62 857.429L1312.41 856.415L1313.2 857.429L1312.41 858.043ZM1316.15 626.821L1312.18 587.106L1314.17 586.908L1318.14 626.623L1316.15 626.821ZM1316.14 890.001V864.13H1318.14V890.001H1316.14ZM1316.14 864.13V626.722H1318.14V864.13H1316.14ZM1316.35 864.745L1311.62 858.657L1313.2 857.429L1317.93 863.516L1316.35 864.745ZM1313.2 858.657L1308.46 864.745L1306.88 863.516L1311.62 857.429L1313.2 858.657Z" fill="#813B19"/>
<path d="M1362.56 863.288H1357.27L1339.98 839.043L1322.7 863.288H1318.15" stroke="#F2964B"/>
<path d="M1327.64 890.001H1352V879.459C1352 871.489 1347.19 864.307 1339.82 861.272C1332.45 864.307 1327.64 871.489 1327.64 879.459V890.001Z" fill="#50250A"/>
<path d="M1355.94 890.695V876.742C1355.94 866.192 1349.57 856.686 1339.82 852.669C1330.06 856.686 1323.7 866.193 1323.7 876.742V890.695" stroke="#9D4820"/>
<path d="M1354.05 890.695V878.378C1354.05 869.067 1348.43 860.676 1339.82 857.13C1331.21 860.676 1325.59 869.067 1325.59 878.378V890.695" stroke="#9D4820"/>
<path d="M1271.56 890.001H1408.08V895.081H1271.56V890.001Z" fill="#9BA5C5"/>
<path d="M1268.18 895.081H1411.46V900.16H1268.18V895.081Z" fill="#F7F9FF"/>
<path d="M1264.8 900.16H1414.84V905.239H1264.8V900.16Z" fill="#9BA5C5"/>
<path d="M1258.04 909.927H1421.59V915.006H1258.04V909.927Z" fill="#9BA5C5"/>
<path d="M1261.42 905.239H1418.21V909.927H1261.42V905.239Z" fill="#F7F9FF"/>
<path d="M1072.99 884.23L1077.04 887.627L1049.78 902.783L1003.36 891.285L1008.89 886.712H1023.81L1027.86 881.878L1034.31 880.18L1037.44 876.522H1043.52L1050.7 873.778L1056.6 874.693L1058.62 880.18H1065.25L1067.65 882.793L1072.99 884.23Z" fill="#B5E8DF"/>
<path d="M1067.65 882.793L1072.99 884.23L1077.04 887.627L1064.18 894.776M1064.18 894.776L1049.78 902.783L1003.36 891.285L1008.89 886.712H1023.81L1029.07 888.543L1032.94 888.862L1034.31 891.285L1036.71 892.302L1034.31 895.36M1064.18 894.776L1060.51 890.773H1057.37L1056.6 889.499L1049.78 888.862L1048.29 885.358L1039.31 884.784M1050.7 873.778L1043.52 876.522H1037.44L1034.31 880.18" stroke="#5EC5B3" stroke-width="0.871878"/>
<path d="M1049.9 897.461L1048.25 901.701V915.006H1249.43L1251.49 912.813L1254.17 910.181V906.087L1251.49 899.362L1249.43 887.811L1242.83 885.618L1237.27 880.354L1225.52 881.086L1217.07 883.132L1209.85 881.086L1202.84 882.109L1195.22 879.623L1190.06 881.086L1179.96 879.623L1175.63 883.132L1161.82 886.788L1159.76 890.443L1154.4 889.42L1142.65 882.109H1135.23L1126.78 879.623L1116.68 878.6L1105.34 882.109L1098.95 881.086L1092.56 883.132H1081.85L1073.6 886.788L1069.48 885.618H1065.77L1061.03 892.051L1059.17 895.999L1049.9 897.461Z" fill="#087463"/>
<path d="M1048.25 901.701L1049.9 897.461L1059.17 895.999L1061.03 892.051L1065.77 885.618H1069.48M1092.56 883.132L1098.95 881.086L1105.34 882.109L1116.68 878.6M1142.65 882.109L1154.4 889.42L1159.76 890.443M1159.76 890.443L1161.82 886.788L1175.63 883.132L1179.96 879.623M1159.76 890.443H1164.15L1167.2 892.604L1172.12 892.051L1174.91 895.999L1181.02 897.461L1185.4 900.424M1217.07 883.132L1225.52 881.086L1237.27 880.354L1242.83 885.618L1249.43 887.811M1254.17 906.087V910.181L1251.49 912.813L1249.43 915.006M1116.68 913.331V909.563L1113.41 909.092L1112.48 906.265H1108.89L1104.24 900.424H1100.66L1091.89 895.999L1087.11 897.461L1080.73 901.178H1075.02L1072.1 904.852M1239.86 912.813L1241.19 908.055L1238.93 906.83L1239.86 903.25L1236.27 901.931L1231.76 898.445L1227.37 899.362L1220.33 895.148L1217.07 895.999L1213.16 893.735L1203.6 897.461M1151.26 908.15L1149.54 904.852H1145.82L1144.09 901.931L1141.17 901.178L1137.72 897.461L1130.41 896.844L1126.78 893.735" stroke="#043129" stroke-width="0.871878"/>
<path d="M972.768 886.579L964.395 889.549L960.056 893.748L958.39 892.186L953.477 895.222L947.011 898.766L943.133 907.408V913.749L1001.64 910.771H1051.97L1055.16 906.422V903.16L1051.97 899.173H1041.75L1037.66 895.368L1030.89 894.914L1024.5 890.747H1017.6L1012.37 888.934L1004.7 889.478L995.25 888.119L984.009 890.747L980.816 888.934L976.856 888.119L972.768 886.579Z" fill="#0DA489"/>
<path d="M972.768 886.579L976.856 888.119L980.816 888.934L984.009 890.747M984.009 890.747L995.25 888.119M984.009 890.747L988.581 892.025L990.401 894.365L994.381 895.333L996.656 897.43L999.272 899.173L997.68 903.16M1017.6 890.747H1024.5L1030.89 894.914M1041.75 899.173H1051.97L1055.16 903.16V906.422L1051.97 910.771M943.197 907.266L947.039 898.765L958.35 892.233L961.4 894.914L965.039 895.978L966.517 898.398L971.294 900.254M1038.4 903.803L1036.35 903.16L1037.14 902.109L1034.64 901.061L1032.82 899.173H1029.64L1026.45 896.462H1023.84L1020.88 895.333" stroke="#043129" stroke-width="0.871878"/>
<path d="M1001.95 909.302C1000.66 909.647 998.006 910.349 997.713 910.391L1009.7 915.006H1060.52L1059.42 912.517L1055.84 911.791L1054.08 909.768H1050.72L1046.19 907.642L1043.78 908.161L1037.63 907.642L1030.1 908.627L1026.15 907.123L1023.16 908.161L1018.99 908.627L1015.85 907.123L1010.87 908.627L1004.44 909.768L1001.95 909.302Z" fill="#B5E8DF"/>
<path d="M1010.87 908.627L1015.85 907.123L1018.99 908.627L1023.16 908.161L1026.15 907.123L1030.1 908.627M1043.78 908.161L1046.19 907.642L1050.72 909.768H1054.08L1055.84 911.791L1059.42 912.517L1060.52 915.006M1037.56 913.969L1036.76 911.635L1033.83 911.324L1032.22 910.65L1027.4 911.947M1039.75 909.094L1042.9 909.768V911.324L1045.53 911.635L1046.7 912.413" stroke="#3FB5A0" stroke-width="0.871878"/>
<path d="M952.526 904.555L946.38 907.233L941.578 914.9H1012.66L1010.07 912.4L1005.61 910.9H1001.97L996.679 909.233H993.272L992.685 907.233L990.1 905.233L981.641 906.067L975.649 905.233L971.537 907.233L969.188 906.067H962.843L960.259 907.233L956.029 905.233L952.526 904.555Z" fill="#5EC5B3"/>
<path d="M952.449 904.577L946.371 907.233L941.69 914.656M960.259 907.233L962.843 906.067H969.188L971.537 907.233L974.197 907.913V908.793L976.817 909.674L979.644 911.581M979.644 911.581L982.954 911.972L984.402 913.978M979.644 911.581L975.783 910.9L974.197 911.581L969.577 911.972L968.129 913.097M981.641 906.067L990.1 905.233L992.685 907.233L993.272 909.233M993.272 909.233H996.679M993.272 909.233L995.503 910.9V912.4L997.365 912.804L998.262 913.978M1005.61 910.9L1010.07 912.4L1012.66 914.9" stroke="#096152" stroke-width="0.871878" stroke-linecap="square"/>
<path d="M1135.99 907.123L1129.88 909.768L1124.61 915.006H1143.72H1194.54L1193.44 912.517L1190.7 911.248L1188.11 909.768L1184.15 907.642L1180.55 908.627L1177.8 908.161L1171.65 907.642L1164.12 908.627L1160.18 907.123L1157.18 908.161L1153.51 907.123H1149.87H1144.94L1140.68 908.161L1135.99 907.123Z" fill="#B5E8DF"/>
<path d="M1140.68 908.161L1135.99 907.123L1129.88 909.768L1124.61 915.006M1140.68 908.161L1144.94 907.123H1149.87H1153.51M1140.68 908.161L1144.94 911.248H1149.87L1151.8 912.517M1164.12 908.627L1171.65 907.642M1188.11 909.768L1190.7 911.248L1193.44 912.517L1194.54 915.006M1178.7 912.517L1177.8 910.799L1174.93 911.248L1173.71 912.517L1171.03 911.248L1169.21 910.799L1164.83 911.248L1164.12 911.921" stroke="#3FB5A0" stroke-width="0.871878"/>
<path d="M1456.37 886.579L1448 889.549L1443.66 893.748L1441.99 892.186L1437.08 895.222L1430.61 898.766L1426.74 907.408V913.749L1485.24 910.771H1535.57L1538.76 906.422V903.16L1535.57 899.173H1525.35L1521.26 895.368L1514.49 894.914L1508.11 890.747H1501.21L1495.97 888.934L1488.31 889.478L1478.85 888.119L1467.61 890.747L1464.42 888.934L1460.46 888.119L1456.37 886.579Z" fill="#0DA489"/>
<path d="M1456.37 886.579L1460.46 888.119L1464.42 888.934L1467.61 890.747M1467.61 890.747L1478.85 888.119M1467.61 890.747L1472.18 892.025L1474 894.365L1477.98 895.333L1480.26 897.43L1482.87 899.173L1481.28 903.16M1501.21 890.747H1508.11L1514.49 894.914M1525.35 899.173H1535.57L1538.76 903.16V906.422L1535.57 910.771M1426.8 907.266L1430.64 898.765L1441.95 892.233L1445 894.914L1448.64 895.978L1450.12 898.398L1454.9 900.254M1522 903.803L1519.95 903.16L1520.75 902.109L1518.25 901.061L1516.43 899.173H1513.24L1510.06 896.462H1507.44L1504.48 895.333" stroke="#043129" stroke-width="0.871878"/>
<path d="M1436.13 904.555L1429.98 907.233L1425.18 914.9H1496.26L1493.68 912.4L1489.21 910.9H1485.57L1480.28 909.233H1476.88L1476.29 907.233L1473.7 905.233L1465.24 906.067L1459.25 905.233L1455.14 907.233L1452.79 906.067H1446.45L1443.86 907.233L1439.63 905.233L1436.13 904.555Z" fill="#5EC5B3"/>
<path d="M1436.05 904.577L1429.97 907.233L1425.29 914.656M1443.86 907.233L1446.45 906.067H1452.79L1455.14 907.233L1457.8 907.913V908.793L1460.42 909.674L1463.25 911.581M1463.25 911.581L1466.56 911.972L1468.01 913.978M1463.25 911.581L1459.39 910.9L1457.8 911.581L1453.18 911.972L1451.73 913.097M1465.24 906.067L1473.7 905.233L1476.29 907.233L1476.88 909.233M1476.88 909.233H1480.28M1476.88 909.233L1479.11 910.9V912.4L1480.97 912.804L1481.86 913.978M1489.21 910.9L1493.68 912.4L1496.26 914.9" stroke="#096152" stroke-width="0.871878" stroke-linecap="square"/>
<path d="M1053.25 808.717H1047.87V815.194H1053.25V808.717Z" fill="#131620"/>
<path d="M1047.87 808.717H1053.25L1050.42 803.299L1047.87 808.717Z" fill="#626E93"/>
<path d="M1067.37 808.717H1061.99V815.194H1067.37V808.717Z" fill="#131620"/>
<path d="M1061.99 808.717H1067.36L1064.53 803.299L1061.99 808.717Z" fill="#626E93"/>
<path d="M1095.59 808.717H1090.21V815.194H1095.59V808.717Z" fill="#131620"/>
<path d="M1090.21 808.717H1095.59L1092.76 803.299L1090.21 808.717Z" fill="#626E93"/>
<path d="M1081.48 808.717H1076.1V815.194H1081.48V808.717Z" fill="#131620"/>
<path d="M1076.1 808.717H1081.48L1078.65 803.299L1076.1 808.717Z" fill="#626E93"/>
<path d="M1109.71 808.717H1104.33V815.194H1109.71V808.717Z" fill="#131620"/>
<path d="M1104.33 808.717H1109.71L1106.88 803.299L1104.33 808.717Z" fill="#626E93"/>
<path d="M1206.62 815.081H1201.24V821.558H1206.62V815.081Z" fill="#131620"/>
<path d="M1201.24 815.081H1206.62L1203.79 809.664L1201.24 815.081Z" fill="#626E93"/>
<path d="M1184.44 815.081H1179.06V821.558H1184.44V815.081Z" fill="#131620"/>
<path d="M1179.06 815.081H1184.44L1181.61 809.664L1179.06 815.081Z" fill="#626E93"/>
<path d="M1228.21 815.081H1222.83V821.558H1228.21V815.081Z" fill="#131620"/>
<path d="M1222.83 815.081H1228.21L1225.38 809.664L1222.83 815.081Z" fill="#626E93"/>
<path d="M1239.26 815.081H1233.88V821.558H1239.26V815.081Z" fill="#131620"/>
<path d="M1233.88 815.081H1239.26L1236.43 809.664L1233.88 815.081Z" fill="#626E93"/>
<path d="M1282.45 815.081H1277.07V821.558H1282.45V815.081Z" fill="#131620"/>
<path d="M1277.07 815.081H1282.44L1279.61 809.664L1277.07 815.081Z" fill="#626E93"/>
<path d="M1293.49 815.081H1288.11V821.558H1293.49V815.081Z" fill="#131620"/>
<path d="M1288.11 815.081H1293.49L1290.66 809.664L1288.11 815.081Z" fill="#626E93"/>
<path d="M1260.85 815.081H1255.47V821.558H1260.85V815.081Z" fill="#131620"/>
<path d="M1255.47 815.081H1260.85L1258.02 809.664L1255.47 815.081Z" fill="#626E93"/>
<path d="M1433.31 815.081H1438.69V821.558H1433.31V815.081Z" fill="#131620"/>
<path d="M1438.69 815.081H1433.31L1436.14 809.664L1438.69 815.081Z" fill="#626E93"/>
<path d="M1390.12 815.081H1395.5V821.558H1390.12V815.081Z" fill="#131620"/>
<path d="M1395.5 815.081H1390.13L1392.96 809.664L1395.5 815.081Z" fill="#626E93"/>
<path d="M1379.08 815.081H1384.46V821.558H1379.08V815.081Z" fill="#131620"/>
<path d="M1384.46 815.081H1379.08L1381.91 809.664L1384.46 815.081Z" fill="#626E93"/>
<path d="M1411.72 815.081H1417.1V821.558H1411.72V815.081Z" fill="#131620"/>
<path d="M1417.1 815.081H1411.72L1414.55 809.664L1417.1 815.081Z" fill="#626E93"/>
<path d="M723.688 963.29V976.045" stroke="#09856F" stroke-width="3"/>
<path d="M733.378 972.17L727.563 979.921" stroke="#09856F" stroke-width="3"/>
<path d="M713.028 972.17L718.842 980.89" stroke="#09856F" stroke-width="3"/>
<path d="M600.901 941.459V954.214" stroke="#09856F" stroke-width="3"/>
<path d="M591.211 950.339L597.025 958.091" stroke="#09856F" stroke-width="3"/>
<path d="M502.104 904.284L507.984 919.381" stroke="#09856F" stroke-width="3"/>
<path d="M331.233 897.881V910.636" stroke="#09856F" stroke-width="3"/>
<path d="M340.923 906.761L335.109 914.513" stroke="#09856F" stroke-width="3"/>
<path d="M320.575 906.761L326.389 915.482" stroke="#09856F" stroke-width="3"/>
<path d="M452.807 986.654V999.409" stroke="#09856F" stroke-width="3"/>
<path d="M462.496 995.533L456.682 1003.29" stroke="#09856F" stroke-width="3"/>
<path d="M442.147 995.533L447.961 1004.25" stroke="#09856F" stroke-width="3"/>
<path d="M-3.48552 837.083L-18.8193 863.308V943.842L40.9744 959.171L159.042 978.146L291.531 984.718L269.591 922.103L231.956 903.263L203.099 876.097L183.184 854.473L149.941 859.222L115.736 837.083L86.7804 866.092L40.9744 842.682L-3.48552 837.083Z" fill="#096152"/>
<path d="M-10.5371 835.631L42.0797 842.682L86.7803 866.095L101.716 881.239L112.508 874.608L133.815 891.92L141.813 916.572L163.9 921.668L170.48 929.994M182.353 856.384L231.206 902.911L269.01 921.668L294.599 991.312" stroke="#001535" stroke-width="3"/>
<path d="M-24.3246 1068.77L-58.0947 1065.86L-34.3853 892.763L-0.615517 895.668L41.1564 908.081L83.1838 902.876L121.957 906.211L129.772 928.524L149.784 930.246L173.237 910.622L201.251 921.851L218.963 964.955L252.195 974.113H276.87L318.013 999.934L331.821 1030.87H267.473L246.816 1036.65L224.302 1034.71L212.293 1042.5L191.03 1040.67L160.649 1056.96L84.3546 1050.4L27.8161 1063.17L-0.950855 1060.7L-24.3246 1068.77Z" fill="#3FB5A0"/>
<path d="M331.821 1030.87L318.013 999.934L275.876 974.113H252.195M83.184 902.876L121.957 906.211L130.954 933.445L135.322 964.06L159.815 966.167L166.674 986.917L181.42 988.185L194.463 1000.76L226.983 1003.55L234.84 1009.16M112.382 1017.53L104.21 997.924L68.0533 994.814L47.3423 1003.38L33.9486 991.88L35.8744 969.491L7.70946 960.018L-14.8037 958.082" stroke="#064136" stroke-width="3"/>
</g>
</g>
</g>
<defs>
<linearGradient id="paint0_linear_88_23" x1="930.321" y1="-712.582" x2="76.0131" y2="837.319" gradientUnits="userSpaceOnUse">
<stop stop-color="#FEE1E9"/>
<stop offset="0.622863" stop-color="#E6EFFF"/>
</linearGradient>
<clipPath id="clip0_88_23">
<rect width="1440" height="1025" fill="white"/>
</clipPath>
<clipPath id="clip1_88_23">
<rect width="1440" height="1025" fill="white"/>
</clipPath>
</defs>
</svg>
