<svg width="1024" height="1024" viewBox="0 0 1024 1024" fill="none" xmlns="http://www.w3.org/2000/svg">
<rect width="1024" height="1024" fill="white"/>
<path fill-rule="evenodd" clip-rule="evenodd" d="M644 141C817.97 141 959 282.03 959 456V567C959 740.97 817.97 882 644 882H458C284.03 882 143 740.97 143 567V141H644ZM230 219V489C230 662.97 371.03 804 545 804H581C742.543 804 873.5 673.043 873.5 511.5C873.5 349.957 742.543 219 581 219H230Z" fill="#0065E0"/>
<path d="M200 814.5C200 851.779 169.779 882 132.5 882C95.2208 882 65 851.779 65 814.5C65 777.221 95.2208 747 132.5 747C169.779 747 200 777.221 200 814.5Z" fill="url(#paint0_radial_87_2)"/>
<path d="M683 546C683 563.728 679.508 581.283 672.724 597.662C665.939 614.041 655.995 628.924 643.459 641.459C630.924 653.995 616.041 663.939 599.662 670.724C583.283 677.508 565.728 681 548 681C530.272 681 512.717 677.508 496.338 670.724C479.959 663.939 465.076 653.995 452.541 641.459C440.005 628.924 430.061 614.041 423.276 597.662C416.492 581.283 413 563.728 413 546H683Z" fill="#0065E0"/>
<path d="M413 366C422.572 366 431.546 368.563 439.273 373.039C437.136 372.365 434.86 372 432.5 372C420.074 372 410 382.074 410 394.5C410 406.926 420.074 417 432.5 417C444.926 417 455 406.926 455 394.5C455 390.508 453.959 386.76 452.136 383.509C460.446 392.797 465.5 405.057 465.5 418.5C465.5 447.495 441.995 471 413 471C384.005 471 360.5 447.495 360.5 418.5C360.5 389.505 384.005 366 413 366Z" fill="#0065E0"/>
<path d="M683 366C691.876 366 700.235 368.207 707.565 372.095C706.885 372.033 706.196 372 705.5 372C693.074 372 683 382.074 683 394.5C683 406.926 693.074 417 705.5 417C717.926 417 728 406.926 728 394.5C728 393.311 727.907 392.144 727.729 391.005C732.655 399.002 735.5 408.418 735.5 418.5C735.5 447.495 711.995 471 683 471C654.005 471 630.5 447.495 630.5 418.5C630.5 389.505 654.005 366 683 366Z" fill="#0065E0"/>
<defs>
<radialGradient id="paint0_radial_87_2" cx="0" cy="0" r="1" gradientTransform="matrix(1013.2 922.133 -1112.53 839.8 -193.267 -122.467)" gradientUnits="userSpaceOnUse">
<stop stop-color="#F7FAFE"/>
<stop offset="1" stop-color="#0065E0"/>
</radialGradient>
</defs>
</svg>
